Coordinates
version=1
nRows=23
nColumns=38
inDegrees=no

Units are S.I. units (second, meters, Newtons, ...)
If the header above contains a line with 'inDegrees', this indicates whether rotational values are in degrees (yes) or radians (no).

endheader
time	pelvis_tilt	pelvis_list	pelvis_rotation	pelvis_tx	pelvis_ty	pelvis_tz	hip_flexion_r	hip_adduction_r	hip_rotation_r	knee_angle_r	ankle_angle_r	subtalar_angle_r	mtp_angle_r	hip_flexion_l	hip_adduction_l	hip_rotation_l	knee_angle_l	ankle_angle_l	subtalar_angle_l	mtp_angle_l	lumbar_extension	lumbar_bending	lumbar_rotation	arm_flex_r	arm_add_r	arm_rot_r	elbow_flex_r	pro_sup_r	wrist_flex_r	wrist_dev_r	arm_flex_l	arm_add_l	arm_rot_l	elbow_flex_l	pro_sup_l	wrist_flex_l	wrist_dev_l
1.75	0.400353	1.5045	-2.01669	0.67318	0.39532	0.918931	-0.261766	0.0128272	-0.270969	0.194319	0.299705	0	0	0.318108	-0.00341656	-0.209763	0	0.017359	0	0	-0.19265	-0.000560975	0.00816147	0.0423688	-0.347883	0.372288	0.853531	1.32264	0	0	-0.132112	-0.276112	0.397914	0.742935	1.19537	0	0
1.76	0.390529	1.50182	-2.00862	0.673434	0.385352	0.917253	-0.272163	0.00890646	-0.274381	0.204335	0.308492	0	0	0.315828	0.000442009	-0.205447	0	0.0205845	0	0	-0.195806	-0.00297695	0.00706159	0.0441935	-0.343766	0.371223	0.846245	1.32426	0	0	-0.130005	-0.277115	0.395747	0.736254	1.18537	0	0
1.77	0.598275	1.51551	-2.21965	0.67413	0.374985	0.913387	-0.240861	-0.00934207	-0.315152	0.258841	0.346405	0	0	0.334694	0.00825823	-0.202923	0	0.0229564	0	0	-0.173538	-0.00801722	0.00502538	0.0455441	-0.353582	0.424892	0.85266	1.08718	0	0	-0.135033	-0.272533	0.378055	0.728426	1.14691	0	0
1.78	0.422933	1.4987	-2.04776	0.673813	0.364248	0.913843	-0.283853	-0.00509506	-0.288181	0.237101	0.329148	0	0	0.307162	0.00993085	-0.193476	0	0.0152623	0	0	-0.195435	-0.0107273	0.0066201	0.0478146	-0.344279	0.409285	0.836077	1.16959	0	0	-0.128983	-0.280331	0.398311	0.721907	1.13563	0	0
1.79	0.410762	1.49627	-2.04224	0.673842	0.352777	0.91279	-0.298484	-0.0145431	-0.291882	0.241489	0.334221	0	0	0.292751	0.0122844	-0.189269	0	0.00883147	0	0	-0.195933	-0.0136588	0.00997264	0.0455158	-0.337069	0.397693	0.822907	1.21559	0	0	-0.128954	-0.283079	0.404237	0.714971	1.11879	0	0
1.8	0.416406	1.4922	-2.05123	0.674033	0.341974	0.911681	-0.308129	-0.0213905	-0.292508	0.254936	0.336526	0	0	0.301476	0.0131957	-0.19902	0.0372056	0.0151716	0	0	-0.197998	-0.0190165	0.0123413	0.0428119	-0.330537	0.38945	0.809792	1.24746	0	0	-0.127717	-0.286042	0.40814	0.708379	1.09766	0	0
1.81	0.421753	1.49078	-2.06074	0.674211	0.330949	0.910435	-0.314022	-0.027801	-0.292805	0.270791	0.337415	0	0	0.315192	0.0110935	-0.21691	0.0904576	0.0300054	0	0	-0.196702	-0.0231492	0.0158074	0.0392323	-0.325046	0.384204	0.796386	1.26935	0	0	-0.127682	-0.28841	0.410664	0.702226	1.07439	0	0
1.82	0.434529	1.49063	-2.07841	0.674453	0.319646	0.909187	-0.317319	-0.035056	-0.292996	0.288887	0.337037	0	0	0.327359	0.00881655	-0.233028	0.137002	0.0407622	0	0	-0.193006	-0.0271953	0.0200064	0.0347429	-0.32033	0.381216	0.782763	1.28443	0	0	-0.128796	-0.290273	0.41234	0.696784	1.05015	0	0
1.83	0.459392	1.49022	-2.10902	0.674845	0.308107	0.908138	-0.31896	-0.0445758	-0.292627	0.309626	0.334839	0	0	0.334026	0.00865606	-0.244308	0.169459	0.0364731	0	0	-0.188394	-0.0321014	0.0248079	0.0298522	-0.31648	0.380788	0.768734	1.29311	0	0	-0.130817	-0.291445	0.412119	0.691295	1.03019	0	0
1.84	0.497869	1.48935	-2.15337	0.675452	0.296354	0.907317	-0.318478	-0.0565614	-0.292203	0.333962	0.330729	0	0	0.336806	0.0103215	-0.25445	0.191154	0.0154706	0	0	-0.182924	-0.0379981	0.0294709	0.0247308	-0.313115	0.381991	0.75377	1.29957	0	0	-0.133576	-0.292182	0.410824	0.68595	1.01124	0	0
1.85	0.543416	1.48755	-2.20437	0.676216	0.284369	0.906766	-0.316444	-0.0705026	-0.291848	0.361777	0.323849	0	0	0.33737	0.0123912	-0.266708	0.209481	-0.0119816	0	0	-0.177128	-0.0448334	0.0335199	0.0193257	-0.309908	0.384559	0.737949	1.30448	0	0	-0.137025	-0.292871	0.40883	0.681052	0.994376	0	0
1.86	0.589815	1.48503	-2.25592	0.677056	0.272224	0.906447	-0.312383	-0.0857273	-0.29041	0.393472	0.313192	0	0	0.338644	0.0134053	-0.282241	0.23327	-0.0305892	0	0	-0.17123	-0.0521997	0.0371447	0.0139388	-0.306842	0.388671	0.72138	1.30819	0	0	-0.140951	-0.293772	0.406658	0.676962	0.979839	0	0
1.87	0.636462	1.48216	-2.30734	0.677916	0.260008	0.906322	-0.305437	-0.101851	-0.287547	0.429681	0.297679	0	0	0.342604	0.0130845	-0.299203	0.26608	-0.0343715	0	0	-0.165072	-0.0599256	0.0402391	0.00888705	-0.303585	0.394253	0.703918	1.31106	0	0	-0.145159	-0.295177	0.404852	0.673845	0.965534	0	0
1.88	0.694799	1.47949	-2.36965	0.678844	0.247792	0.906287	-0.293664	-0.119486	-0.284119	0.471587	0.276496	0	0	0.350683	0.0122642	-0.315806	0.307513	-0.0246703	0	0	-0.157283	-0.0684061	0.0422411	0.00483933	-0.301109	0.407448	0.685353	1.29743	0	0	-0.149566	-0.297958	0.406658	0.672329	0.939282	0	0
1.89	0.741744	1.47513	-2.41882	0.679947	0.235505	0.906672	-0.281233	-0.13747	-0.279178	0.516106	0.248754	0	0	0.357238	0.0122196	-0.330024	0.350832	-0.00848884	0	0	-0.151233	-0.0774069	0.0429014	-0.000132803	-0.29654	0.410459	0.666049	1.3126	0	0	-0.153144	-0.301749	0.410867	0.671227	0.917981	0	0
1.9	0.796314	1.46715	-2.47385	0.681373	0.223363	0.907626	-0.266204	-0.159983	-0.275082	0.565797	0.212075	0	0	0.353053	0.0226516	-0.329011	0.372706	0.00268125	0	0	-0.147227	-0.0898488	0.0410102	-0.00342955	-0.292747	0.420877	0.646859	1.30931	0	0	-0.155885	-0.305563	0.413183	0.669376	0.907332	0	0
1.91	0.831416	1.46817	-2.50807	0.682834	0.210993	0.907766	-0.242337	-0.173065	-0.265841	0.619213	0.165096	0	0	0.368509	0.009745	-0.365777	0.433339	0.0334296	0	0	-0.137227	-0.0930119	0.0390029	-0.00913793	-0.292192	0.434302	0.632472	1.30503	0	0	-0.160346	-0.309706	0.418692	0.670069	0.894587	0	0
1.92	0.892837	1.4641	-2.56714	0.68468	0.198891	0.90835	-0.215002	-0.193235	-0.257973	0.676878	0.106058	0	0	0.36617	0.0154217	-0.377486	0.452391	0.0476279	0	0	-0.128838	-0.10195	0.0348472	-0.0135619	-0.290884	0.447861	0.617582	1.30333	0	0	-0.16347	-0.314966	0.425597	0.671251	0.884332	0	0
1.93	0.958461	1.45848	-2.62924	0.686627	0.187072	0.908999	-0.184935	-0.214334	-0.248356	0.735424	0.0417724	0	0	0.356762	0.0301245	-0.375561	0.451735	0.0519659	0	0	-0.121044	-0.112537	0.0293632	-0.0180275	-0.289232	0.45852	0.605271	1.30351	0	0	-0.166078	-0.321043	0.431067	0.674071	0.878184	0	0
1.94	1.03505	1.44876	-2.70204	0.688401	0.175946	0.910045	-0.151797	-0.2387	-0.235611	0.794009	-0.0212958	0	0	0.331305	0.0680186	-0.327802	0.407238	0.0382056	0	0	-0.114683	-0.128267	0.0231306	-0.02076	-0.285974	0.46843	0.593421	1.30364	0	0	-0.166683	-0.328975	0.436814	0.677884	0.871564	0	0
1.95	1.09676	1.4544	-2.76091	0.690128	0.164243	0.909237	-0.110774	-0.246791	-0.221048	0.852909	-0.0838771	0	0	0.34475	0.0518553	-0.376346	0.451266	0.0598007	0	0	-0.0997342	-0.126758	0.0192803	-0.0285245	-0.288476	0.474689	0.591392	1.31384	0	0	-0.172011	-0.333064	0.433389	0.683755	0.890931	0	0
1.96	1.15506	1.45107	-2.81643	0.691726	0.153206	0.909321	-0.0718675	-0.26379	-0.209231	0.910951	-0.149423	0	0	0.336817	0.0642253	-0.372632	0.447271	0.0624154	0	0	-0.0903891	-0.134129	0.014394	-0.0323495	-0.290538	0.491556	0.588566	1.3069	0	0	-0.173973	-0.343917	0.447822	0.696117	0.860424	0	0
1.97	1.17812	1.43947	-2.83757	0.693003	0.142708	0.910628	-0.0388336	-0.287796	-0.198942	0.965212	-0.215956	0	0	0.305946	0.102537	-0.315798	0.399005	0.0485777	0	0	-0.0898813	-0.149018	0.00868202	-0.0328387	-0.28794	0.499079	0.581913	1.30898	0	0	-0.173702	-0.353115	0.450004	0.704419	0.859009	0	0
